<svg width="438" height="332" viewBox="0 0 438 332" fill="none" xmlns="http://www.w3.org/2000/svg">
<g filter="url(#filter0_d_1749_18612)">
<path d="M387.608 145.476V172.79C387.608 182.198 394.991 189.828 404.095 189.828H404.965C406.644 189.828 408 191.229 408 192.964V271.735C408 285.136 397.487 296 384.521 296H53.4792C40.5126 296 30 285.136 30 271.735V193.427C30 191.693 31.3563 190.291 33.0345 190.291C43.8163 190.291 52.5557 181.26 52.5557 170.117V149.081C52.5557 137.939 43.8163 128.907 33.0345 128.907C31.3563 128.907 30 127.505 30 125.771V48.2647C30 34.8643 40.5126 24 53.4792 24H384.521C397.487 24 408 34.8643 408 48.2647V125.307C408 127.042 406.644 128.443 404.965 128.443H404.095C394.991 128.443 387.608 136.068 387.608 145.482V145.476Z" fill="white"/>
<path d="M387.608 145.476V172.79C387.608 182.198 394.991 189.828 404.095 189.828H404.965C406.644 189.828 408 191.229 408 192.964V271.735C408 285.136 397.487 296 384.521 296H53.4792C40.5126 296 30 285.136 30 271.735V193.427C30 191.693 31.3563 190.291 33.0345 190.291C43.8163 190.291 52.5557 181.26 52.5557 170.117V149.081C52.5557 137.939 43.8163 128.907 33.0345 128.907C31.3563 128.907 30 127.505 30 125.771V48.2647C30 34.8643 40.5126 24 53.4792 24H384.521C397.487 24 408 34.8643 408 48.2647V125.307C408 127.042 406.644 128.443 404.965 128.443H404.095C394.991 128.443 387.608 136.068 387.608 145.482V145.476Z" fill="#E5C4FF" fill-opacity="0.04"/>
<path d="M53.4795 24.4004H384.521C397.254 24.4004 407.6 35.0727 407.6 48.2646V125.308C407.599 126.833 406.411 128.043 404.966 128.043H404.095C394.904 128.043 387.445 135.617 387.214 145.032L387.208 145.477V172.79C387.208 182.406 394.758 190.228 404.095 190.228H404.966C406.411 190.228 407.6 191.438 407.6 192.964V271.735C407.6 284.927 397.254 295.6 384.521 295.6H53.4795C40.7461 295.6 30.4004 284.927 30.4004 271.735V193.428C30.4004 191.902 31.5893 190.692 33.0342 190.691C44.0491 190.691 52.956 181.468 52.9561 170.117V149.081C52.956 137.73 44.0491 128.507 33.0342 128.507C31.5893 128.507 30.4004 127.296 30.4004 125.771V48.2646C30.4004 35.0727 40.7461 24.4004 53.4795 24.4004Z" stroke="#8F00FF" stroke-opacity="0.6" stroke-width="0.8"/>
</g>
<defs>
<filter id="filter0_d_1749_18612" x="0" y="0" width="438" height="332" filterUnits="userSpaceOnUse" color-interpolation-filters="sRGB">
<feFlood flood-opacity="0" result="BackgroundImageFix"/>
<feColorMatrix in="SourceAlpha" type="matrix" values="0 0 0 0 0 0 0 0 0 0 0 0 0 0 0 0 0 0 127 0" result="hardAlpha"/>
<feOffset dy="6"/>
<feGaussianBlur stdDeviation="15"/>
<feComposite in2="hardAlpha" operator="out"/>
<feColorMatrix type="matrix" values="0 0 0 0 0 0 0 0 0 0 0 0 0 0 0 0 0 0 0.25 0"/>
<feBlend mode="normal" in2="BackgroundImageFix" result="effect1_dropShadow_1749_18612"/>
<feBlend mode="normal" in="SourceGraphic" in2="effect1_dropShadow_1749_18612" result="shape"/>
</filter>
</defs>
</svg>
