<svg width="41" height="41" viewBox="0 0 41 41" fill="none" xmlns="http://www.w3.org/2000/svg">
<path d="M3.7778 3.77731H13.8499V1.25928H1.25977V13.8494H3.7778V3.77731Z" fill="#8F00FF"/>
<path d="M13.849 13.8493V6.29517H6.29492V13.8493H13.849ZM8.81295 8.8132H11.331V11.3312H8.81295V8.8132Z" fill="#8F00FF"/>
<path d="M25.8105 3.77731H36.5122V13.8494H39.0302V1.25928H25.8105V3.77731Z" fill="#8F00FF"/>
<path d="M33.9935 13.8493V6.29517H26.4395V13.8493H33.9935ZM28.9575 8.8132H31.4755V11.3312H28.9575V8.8132Z" fill="#8F00FF"/>
<path d="M13.8499 36.5116H3.7778V26.4395H1.25977V39.0296H13.8499V36.5116Z" fill="#8F00FF"/>
<path d="M13.849 26.4395H6.29492V33.9935H13.849V26.4395ZM11.331 31.4755H8.81295V28.9575H11.331V31.4755Z" fill="#8F00FF"/>
<path d="M36.5122 36.5116H25.8105V39.0296H39.0302V26.4395H36.5122V36.5116Z" fill="#8F00FF"/>
<path d="M21.4043 23.9214H31.4764V28.9574H33.9944V21.4033H21.4043V23.9214Z" fill="#8F00FF"/>
<path d="M33.9933 33.9935V31.4754H18.8851V21.4033H6.29492V23.9214H16.367V33.9935H33.9933Z" fill="#8F00FF"/>
<path d="M16.3672 6.29517H18.8852V13.8493H16.3672V6.29517Z" fill="#8F00FF"/>
<path d="M6.29492 18.8853H23.9211V6.29517H21.4031V16.3673H6.29492V18.8853Z" fill="#8F00FF"/>
<path d="M26.4395 16.3674H33.9935V18.8855H26.4395V16.3674Z" fill="#8F00FF"/>
<path d="M26.4395 26.4395H28.9575V28.9575H26.4395V26.4395Z" fill="#8F00FF"/>
<path d="M21.4043 26.4395H23.9223V28.9575H21.4043V26.4395Z" fill="#8F00FF"/>
</svg>
