<svg width="188" height="130" viewBox="0 0 188 130" fill="none" xmlns="http://www.w3.org/2000/svg">
<g filter="url(#filter0_d_1749_19192)">
<path d="M174.074 55.3788L174.074 67.8305C174.074 72.1195 177.668 75.5979 182.099 75.5979L182.523 75.5979C183.34 75.5979 184 76.2369 184 77.0276L184 112.938C184 119.047 178.883 124 172.571 124L11.429 124C5.11725 124 1.44548e-06 119.047 1.3713e-06 112.938L9.37839e-07 77.2389C9.28239e-07 76.4483 0.660207 75.8093 1.47712 75.8093C6.72538 75.8093 10.9795 71.6919 10.9795 66.6122L10.9795 57.0223C10.9795 51.9427 6.72538 47.8252 1.47712 47.8252C0.660207 47.8252 5.72938e-07 47.1862 5.63338e-07 46.3956L1.34313e-07 11.0618C6.01376e-08 4.95284 5.11725 4.86265e-08 11.429 1.08604e-07L172.571 1.63985e-06C178.883 1.69983e-06 184 4.95284 184 11.0618L184 46.1842C184 46.9749 183.34 47.6139 182.523 47.6139L182.099 47.6139C177.668 47.6139 174.074 51.0898 174.074 55.3813L174.074 55.3788Z" fill="#E9F1FF"/>
<path d="M11.4287 0.200195L172.571 0.200197C178.779 0.200365 183.8 5.06934 183.8 11.0615L183.8 46.1846C183.8 46.8585 183.235 47.4141 182.522 47.4141L182.099 47.4141C177.705 47.4143 174.105 50.7544 173.885 54.9707L173.874 55.3789L173.874 67.8301C173.874 72.2355 177.563 75.7977 182.099 75.7979L182.522 75.7979C183.235 75.7979 183.8 76.3534 183.8 77.0273L183.8 112.938C183.8 118.931 178.779 123.8 172.571 123.8L11.4287 123.8C5.22144 123.8 0.200376 118.931 0.200197 112.938L0.200196 77.2393C0.200196 76.5652 0.764878 76.0098 1.47754 76.0098C6.82983 76.0095 11.1796 71.8083 11.1797 66.6123L11.1797 57.0225C11.1797 51.8264 6.82986 47.6252 1.47754 47.625C0.76488 47.625 0.200196 47.0696 0.200196 46.3955L0.200195 11.0615C0.200371 5.06933 5.22143 0.200364 11.4287 0.200195Z" fill="white" stroke="#BC65FF" stroke-width="0.4"/>
</g>
<defs>
<filter id="filter0_d_1749_19192" x="-4" y="0" width="192" height="132" filterUnits="userSpaceOnUse" color-interpolation-filters="sRGB">
<feFlood flood-opacity="0" result="BackgroundImageFix"/>
<feColorMatrix in="SourceAlpha" type="matrix" values="0 0 0 0 0 0 0 0 0 0 0 0 0 0 0 0 0 0 127 0" result="hardAlpha"/>
<feOffset dy="4"/>
<feGaussianBlur stdDeviation="2"/>
<feComposite in2="hardAlpha" operator="out"/>
<feColorMatrix type="matrix" values="0 0 0 0 0 0 0 0 0 0 0 0 0 0 0 0 0 0 0.25 0"/>
<feBlend mode="normal" in2="BackgroundImageFix" result="effect1_dropShadow_1749_19192"/>
<feBlend mode="normal" in="SourceGraphic" in2="effect1_dropShadow_1749_19192" result="shape"/>
</filter>
</defs>
</svg>
