<svg width="54" height="54" viewBox="0 0 54 54" fill="none" xmlns="http://www.w3.org/2000/svg">
<path d="M28.3185 5.8185C27.4748 4.97453 26.3304 4.50025 25.137 4.5H9C7.80653 4.5 6.66193 4.97411 5.81802 5.81802C4.97411 6.66193 4.5 7.80653 4.5 9V25.137C4.50025 26.3304 4.97453 27.4748 5.8185 28.3185L25.4025 47.9025C26.4252 48.9187 27.8083 49.4891 29.25 49.4891C30.6917 49.4891 32.0748 48.9187 33.0975 47.9025L47.9025 33.0975C48.9187 32.0748 49.4891 30.6917 49.4891 29.25C49.4891 27.8083 48.9187 26.4252 47.9025 25.4025L28.3185 5.8185Z" stroke="black" stroke-width="2.5" stroke-linecap="round" stroke-linejoin="round"/>
<path d="M16.875 18C17.4963 18 18 17.4963 18 16.875C18 16.2537 17.4963 15.75 16.875 15.75C16.2537 15.75 15.75 16.2537 15.75 16.875C15.75 17.4963 16.2537 18 16.875 18Z" stroke="black" stroke-width="2.5" stroke-linecap="round" stroke-linejoin="round"/>
</svg>
