<svg width="47" height="45" viewBox="0 0 47 45" fill="none" xmlns="http://www.w3.org/2000/svg">
<path d="M22.4353 1.66351C22.5339 1.4643 22.6862 1.29661 22.8751 1.17937C23.0639 1.06213 23.2818 1 23.504 1C23.7263 1 23.9442 1.06213 24.133 1.17937C24.3219 1.29661 24.4742 1.4643 24.5728 1.66351L29.7703 12.1913C30.1127 12.8842 30.6181 13.4837 31.2432 13.9383C31.8683 14.3929 32.5943 14.689 33.359 14.8013L44.9826 16.5023C45.2028 16.5342 45.4097 16.6271 45.5799 16.7705C45.7501 16.9138 45.8768 17.102 45.9456 17.3136C46.0144 17.5253 46.0227 17.7519 45.9694 17.968C45.9161 18.1841 45.8034 18.3809 45.6441 18.5363L37.2381 26.7218C36.6837 27.262 36.2689 27.9288 36.0294 28.6649C35.7899 29.401 35.7329 30.1843 35.8633 30.9473L37.8478 42.5123C37.8867 42.7324 37.8629 42.959 37.7792 43.1663C37.6954 43.3736 37.5551 43.5531 37.3743 43.6845C37.1934 43.8159 36.9793 43.8938 36.7562 43.9093C36.5332 43.9248 36.3104 43.8773 36.113 43.7723L25.7225 38.3093C25.0379 37.9498 24.2762 37.7619 23.5029 37.7619C22.7296 37.7619 21.9679 37.9498 21.2833 38.3093L10.895 43.7723C10.6978 43.8767 10.4752 43.9237 10.2526 43.9078C10.0299 43.892 9.81622 43.814 9.63571 43.6828C9.45521 43.5515 9.31517 43.3722 9.23153 43.1653C9.14788 42.9583 9.12398 42.7321 9.16255 42.5123L11.1448 30.9495C11.2757 30.1862 11.219 29.4024 10.9795 28.6659C10.74 27.9293 10.3249 27.2621 9.77005 26.7218L1.36405 18.5385C1.20339 18.3833 1.08953 18.1862 1.03546 17.9694C0.981396 17.7527 0.989282 17.5252 1.05823 17.3127C1.12717 17.1002 1.2544 16.9114 1.42542 16.7677C1.59644 16.624 1.80438 16.5313 2.02555 16.5L13.6468 14.8013C14.4124 14.6899 15.1394 14.3941 15.7654 13.9395C16.3913 13.4848 16.8974 12.8849 17.24 12.1913L22.4353 1.66351Z" stroke="black" stroke-width="2" stroke-linecap="round" stroke-linejoin="round"/>
</svg>
