<svg width="48" height="34" viewBox="0 0 48 34" fill="none" xmlns="http://www.w3.org/2000/svg">
<path d="M45.9974 12.2508V25.7508M9.99735 17.8758V25.7508C9.99735 27.541 11.4197 29.2579 13.9514 30.5238C16.4832 31.7896 19.9169 32.5008 23.4974 32.5008C27.0778 32.5008 30.5116 31.7896 33.0433 30.5238C35.575 29.2579 36.9974 27.541 36.9974 25.7508V17.8758M44.6924 14.3253C45.0951 14.1476 45.437 13.8557 45.6754 13.4856C45.9139 13.1156 46.0386 12.6837 46.0341 12.2435C46.0295 11.8032 45.8959 11.374 45.6498 11.009C45.4038 10.644 45.056 10.3591 44.6496 10.1898L25.3649 1.4058C24.7786 1.13839 24.1417 1 23.4974 1C22.853 1 22.2161 1.13839 21.6299 1.4058L2.34735 10.1808C1.94678 10.3562 1.60601 10.6446 1.36672 11.0106C1.12744 11.3767 1 11.8045 1 12.2418C1 12.6791 1.12744 13.1069 1.36672 13.473C1.60601 13.839 1.94678 14.1274 2.34735 14.3028L21.6299 23.0958C22.2161 23.3632 22.853 23.5016 23.4974 23.5016C24.1417 23.5016 24.7786 23.3632 25.3649 23.0958L44.6924 14.3253Z" stroke="black" stroke-width="2" stroke-linecap="round" stroke-linejoin="round"/>
</svg>
