<svg width="47" height="34" viewBox="0 0 47 34" fill="none" xmlns="http://www.w3.org/2000/svg">
<path d="M25.75 1V5.5M25.75 28V32.5M25.75 14.5V19M1 10C2.79021 10 4.5071 10.7112 5.77297 11.977C7.03884 13.2429 7.75 14.9598 7.75 16.75C7.75 18.5402 7.03884 20.2571 5.77297 21.523C4.5071 22.7888 2.79021 23.5 1 23.5V28C1 29.1935 1.47411 30.3381 2.31802 31.182C3.16193 32.0259 4.30653 32.5 5.5 32.5H41.5C42.6935 32.5 43.8381 32.0259 44.682 31.182C45.5259 30.3381 46 29.1935 46 28V23.5C44.2098 23.5 42.4929 22.7888 41.227 21.523C39.9612 20.2571 39.25 18.5402 39.25 16.75C39.25 14.9598 39.9612 13.2429 41.227 11.977C42.4929 10.7112 44.2098 10 46 10V5.5C46 4.30653 45.5259 3.16193 44.682 2.31802C43.8381 1.47411 42.6935 1 41.5 1H5.5C4.30653 1 3.16193 1.47411 2.31802 2.31802C1.47411 3.16193 1 4.30653 1 5.5V10Z" stroke="black" stroke-width="2" stroke-linecap="round" stroke-linejoin="round"/>
</svg>
