<svg width="271" height="53" viewBox="0 0 271 53" fill="none" xmlns="http://www.w3.org/2000/svg">
<path d="M12.5611 41.32C11.7344 41.32 11.0944 41.0933 10.6411 40.64C10.2144 40.16 10.0011 39.5067 10.0011 38.68V17.08H2.20109C1.50776 17.08 0.961094 16.8933 0.561094 16.52C0.18776 16.12 0.00109375 15.5867 0.00109375 14.92C0.00109375 14.2267 0.18776 13.7067 0.561094 13.36C0.961094 12.9867 1.50776 12.8 2.20109 12.8H22.9211C23.6144 12.8 24.1478 12.9867 24.5211 13.36C24.9211 13.7067 25.1211 14.2267 25.1211 14.92C25.1211 15.5867 24.9211 16.12 24.5211 16.52C24.1478 16.8933 23.6144 17.08 22.9211 17.08H15.1211V38.68C15.1211 39.5067 14.9078 40.16 14.4811 40.64C14.0544 41.0933 13.4144 41.32 12.5611 41.32ZM32.3198 41.4C30.3998 41.4 28.7598 41.0133 27.3998 40.24C26.0665 39.4667 25.0398 38.3467 24.3198 36.88C23.5998 35.3867 23.2398 33.6133 23.2398 31.56C23.2398 31.08 23.3998 30.72 23.7198 30.48C24.0665 30.2133 24.5465 30.08 25.1598 30.08H37.9998V32.96H26.7598L27.5598 32.36C27.5865 33.56 27.7598 34.5867 28.0798 35.44C28.4265 36.2667 28.9332 36.9067 29.5998 37.36C30.2932 37.7867 31.1598 38 32.1998 38C33.3198 38 34.2532 37.7467 34.9998 37.24C35.7732 36.7067 36.3465 35.96 36.7198 35C37.1198 34.04 37.3198 32.92 37.3198 31.64V31.36C37.3198 29.1467 36.7998 27.5067 35.7598 26.44C34.7465 25.3733 33.2398 24.84 31.2398 24.84C30.5732 24.84 29.7998 24.9333 28.9198 25.12C28.0665 25.28 27.2532 25.5867 26.4798 26.04C25.9198 26.36 25.4265 26.5067 24.9998 26.48C24.5732 26.4267 24.2265 26.2667 23.9598 26C23.7198 25.7333 23.5732 25.4 23.5198 25C23.4665 24.6 23.5332 24.2 23.7198 23.8C23.9065 23.4 24.2398 23.0533 24.7198 22.76C25.6532 22.1733 26.7198 21.7467 27.9198 21.48C29.1465 21.1867 30.2798 21.04 31.3198 21.04C33.5332 21.04 35.4398 21.4533 37.0398 22.28C38.6398 23.1067 39.8665 24.28 40.7198 25.8C41.5998 27.32 42.0398 29.12 42.0398 31.2C42.0398 33.2 41.6265 34.9733 40.7998 36.52C39.9732 38.04 38.8265 39.24 37.3598 40.12C35.9198 40.9733 34.2398 41.4 32.3198 41.4ZM52.8386 41.4C50.6253 41.4 48.9586 40.7733 47.8386 39.52C46.7186 38.24 46.1586 36.3733 46.1586 33.92V15C46.1586 14.1733 46.3719 13.5467 46.7986 13.12C47.2253 12.6933 47.8386 12.48 48.6386 12.48C49.4386 12.48 50.0519 12.6933 50.4786 13.12C50.9319 13.5467 51.1586 14.1733 51.1586 15V33.68C51.1586 34.9067 51.4119 35.8133 51.9186 36.4C52.4519 36.9867 53.1986 37.28 54.1586 37.28C54.3719 37.28 54.5719 37.28 54.7586 37.28C54.9453 37.2533 55.1319 37.2267 55.3186 37.2C55.6919 37.1467 55.9453 37.2533 56.0786 37.52C56.2119 37.76 56.2786 38.2667 56.2786 39.04C56.2786 39.7067 56.1453 40.2267 55.8786 40.6C55.6119 40.9733 55.1719 41.2 54.5586 41.28C54.2919 41.3067 54.0119 41.3333 53.7186 41.36C53.4253 41.3867 53.1319 41.4 52.8386 41.4ZM66.6167 41.4C64.6967 41.4 63.0567 41.0133 61.6967 40.24C60.3634 39.4667 59.3367 38.3467 58.6167 36.88C57.8967 35.3867 57.5367 33.6133 57.5367 31.56C57.5367 31.08 57.6967 30.72 58.0167 30.48C58.3634 30.2133 58.8434 30.08 59.4567 30.08H72.2967V32.96H61.0567L61.8567 32.36C61.8834 33.56 62.0567 34.5867 62.3767 35.44C62.7234 36.2667 63.2301 36.9067 63.8967 37.36C64.5901 37.7867 65.4567 38 66.4967 38C67.6167 38 68.5501 37.7467 69.2967 37.24C70.0701 36.7067 70.6434 35.96 71.0167 35C71.4167 34.04 71.6167 32.92 71.6167 31.64V31.36C71.6167 29.1467 71.0967 27.5067 70.0567 26.44C69.0434 25.3733 67.5367 24.84 65.5367 24.84C64.8701 24.84 64.0967 24.9333 63.2167 25.12C62.3634 25.28 61.5501 25.5867 60.7767 26.04C60.2167 26.36 59.7234 26.5067 59.2967 26.48C58.8701 26.4267 58.5234 26.2667 58.2567 26C58.0167 25.7333 57.8701 25.4 57.8167 25C57.7634 24.6 57.8301 24.2 58.0167 23.8C58.2034 23.4 58.5367 23.0533 59.0167 22.76C59.9501 22.1733 61.0167 21.7467 62.2167 21.48C63.4434 21.1867 64.5767 21.04 65.6167 21.04C67.8301 21.04 69.7367 21.4533 71.3367 22.28C72.9367 23.1067 74.1634 24.28 75.0167 25.8C75.8967 27.32 76.3367 29.12 76.3367 31.2C76.3367 33.2 75.9234 34.9733 75.0967 36.52C74.2701 38.04 73.1234 39.24 71.6567 40.12C70.2167 40.9733 68.5367 41.4 66.6167 41.4ZM91.7355 41.4C90.0821 41.4 88.6288 40.9867 87.3755 40.16C86.1488 39.3333 85.3355 38.2267 84.9355 36.84L85.3755 35.84V38.76C85.3755 39.5867 85.1621 40.2267 84.7355 40.68C84.3088 41.1067 83.7088 41.32 82.9355 41.32C82.1355 41.32 81.5221 41.1067 81.0955 40.68C80.6688 40.2267 80.4555 39.5867 80.4555 38.76V15C80.4555 14.1733 80.6688 13.5467 81.0955 13.12C81.5221 12.6933 82.1355 12.48 82.9355 12.48C83.7355 12.48 84.3488 12.6933 84.7755 13.12C85.2288 13.5467 85.4555 14.1733 85.4555 15V25.4H84.9755C85.4021 24.0933 86.2288 23.04 87.4555 22.24C88.6821 21.44 90.1088 21.04 91.7355 21.04C93.4688 21.04 94.9755 21.4533 96.2555 22.28C97.5355 23.1067 98.5355 24.28 99.2555 25.8C99.9755 27.2933 100.335 29.0933 100.335 31.2C100.335 33.28 99.9755 35.0933 99.2555 36.64C98.5355 38.16 97.5221 39.3333 96.2155 40.16C94.9355 40.9867 93.4421 41.4 91.7355 41.4ZM90.3355 37.6C91.3221 37.6 92.1888 37.36 92.9355 36.88C93.6821 36.4 94.2555 35.6933 94.6555 34.76C95.0821 33.8 95.2955 32.6133 95.2955 31.2C95.2955 29.0667 94.8421 27.48 93.9355 26.44C93.0288 25.3733 91.8288 24.84 90.3355 24.84C89.3488 24.84 88.4821 25.08 87.7355 25.56C86.9888 26.0133 86.4021 26.72 85.9755 27.68C85.5755 28.6133 85.3755 29.7867 85.3755 31.2C85.3755 33.3067 85.8288 34.9067 86.7355 36C87.6421 37.0667 88.8421 37.6 90.3355 37.6ZM112.32 41.4C110.4 41.4 108.76 41.0133 107.4 40.24C106.067 39.4667 105.04 38.3467 104.32 36.88C103.6 35.3867 103.24 33.6133 103.24 31.56C103.24 31.08 103.4 30.72 103.72 30.48C104.067 30.2133 104.547 30.08 105.16 30.08H118V32.96H106.76L107.56 32.36C107.587 33.56 107.76 34.5867 108.08 35.44C108.427 36.2667 108.933 36.9067 109.6 37.36C110.293 37.7867 111.16 38 112.2 38C113.32 38 114.253 37.7467 115 37.24C115.773 36.7067 116.347 35.96 116.72 35C117.12 34.04 117.32 32.92 117.32 31.64V31.36C117.32 29.1467 116.8 27.5067 115.76 26.44C114.747 25.3733 113.24 24.84 111.24 24.84C110.573 24.84 109.8 24.9333 108.92 25.12C108.067 25.28 107.253 25.5867 106.48 26.04C105.92 26.36 105.427 26.5067 105 26.48C104.573 26.4267 104.227 26.2667 103.96 26C103.72 25.7333 103.573 25.4 103.52 25C103.467 24.6 103.533 24.2 103.72 23.8C103.907 23.4 104.24 23.0533 104.72 22.76C105.653 22.1733 106.72 21.7467 107.92 21.48C109.147 21.1867 110.28 21.04 111.32 21.04C113.533 21.04 115.44 21.4533 117.04 22.28C118.64 23.1067 119.867 24.28 120.72 25.8C121.6 27.32 122.04 29.12 122.04 31.2C122.04 33.2 121.627 34.9733 120.8 36.52C119.973 38.04 118.827 39.24 117.36 40.12C115.92 40.9733 114.24 41.4 112.32 41.4Z" fill="black"/>
<g clip-path="url(#clip0_1354_11908)">
<path d="M258.044 32.1681L251.452 19.1781C250.214 19.8524 248.789 20.232 247.275 20.2267C242.621 20.2055 238.81 16.3586 238.808 11.6808C238.808 8.92247 240.038 6.49862 241.984 4.92165C240.383 4.04821 238.568 3.56503 236.685 3.56503H151.286C142.85 3.56503 137.412 12.687 141.291 20.3303L152.658 42.729C154.591 46.5387 158.446 48.9333 162.652 48.9333H248.049C256.485 48.9333 261.923 39.8114 258.044 32.1681Z" fill="black"/>
<path d="M213.655 26.2771C213.936 23.4258 214.173 20.6435 214.971 17.9462C216.209 13.7596 218.385 10.234 222.475 8.40479C226.799 6.46942 231.179 6.71897 235.463 8.74461C236.117 9.05257 236.348 9.40831 236.24 10.1995C235.537 15.3206 237.957 19.7701 242.579 21.9895C243.011 22.1966 243.467 22.3108 243.512 22.9426C243.894 28.2576 243.606 33.4743 241.004 38.2769C237.154 45.3892 227.839 47.8183 221.023 43.5202C218.234 41.76 216.562 39.1211 215.424 36.0893C215.203 35.4999 215.027 34.892 214.771 34.1141C212.872 42.2326 207.387 45.4555 199.747 45.5166C192.775 45.5724 188.477 41.7574 186.157 35.0088C185.462 39.376 183.118 42.1025 179.505 43.8069C177.609 44.7016 175.61 45.2272 173.532 45.4263C169.787 45.7874 166.134 45.4423 162.689 43.7936C158.149 41.622 155.6 37.2415 155.858 32.2159C155.887 31.6345 156.053 31.4487 156.632 31.4566C158.963 31.4858 161.293 31.4832 163.624 31.4566C164.172 31.4513 164.398 31.5788 164.42 32.1894C164.496 34.4858 165.173 36.5459 167.472 37.4486C170.171 38.5105 172.923 38.5477 175.449 36.8858C176.937 35.9061 177.29 34.3531 177.079 32.6433C176.866 30.9018 175.989 29.6593 174.351 29.0142C172.686 28.3611 170.94 28.3611 169.202 28.4912C168.354 28.5549 168.006 28.4116 168.064 27.4585C168.149 26.0461 168.133 24.6231 168.07 23.2108C168.033 22.3771 168.246 22.0745 169.115 22.1886C170.292 22.3426 171.483 22.2842 172.652 22.0506C173.192 21.9417 173.735 21.7957 174.245 21.586C175.681 21.0019 176.526 19.9559 176.526 18.3445C176.526 16.7675 175.641 15.7613 174.29 15.1746C172.376 14.3436 170.393 14.3091 168.441 15.018C166.579 15.6949 165.636 17.1577 165.465 19.0958C165.407 19.7462 165.181 19.8816 164.593 19.8763C162.336 19.8497 160.079 19.8444 157.822 19.8843C157.096 19.8975 156.874 19.6958 156.945 18.9418C157.412 13.9852 159.732 10.2871 164.375 8.43665C169.584 6.36057 174.833 6.64198 179.858 9.12159C183.985 11.1578 185.817 15.2861 184.767 19.6719C184.148 22.2497 182.699 24.0895 179.821 24.8727C181.951 25.555 183.692 26.5001 184.948 28.2815C185.001 26.7364 185.033 25.2098 185.172 23.6913C185.465 20.5373 186.199 17.5108 187.782 14.7551C191.045 9.08442 196.112 6.87561 202.422 7.18357C205.251 7.32162 207.884 8.09152 210.147 9.90211C212.327 11.6463 213.586 13.9454 214.21 16.6454C214.337 17.1896 214.189 17.3728 213.631 17.3675C211.263 17.3462 208.896 17.3569 206.528 17.3569C206.194 17.3569 205.857 17.3861 205.73 16.948C205.19 15.1029 203.981 14.0543 202.064 13.8897C199.955 13.7091 198.108 14.2852 196.644 15.8808C196.294 16.2631 195.986 16.6878 195.699 17.1179C194.666 18.663 194.385 20.4896 193.876 22.2258C193.816 22.4302 193.71 22.7647 194.019 22.9161C194.219 23.0143 194.337 22.8258 194.474 22.6984C200.229 17.2719 209.28 18.6418 213.223 25.5337C213.365 25.7806 213.51 26.0249 213.655 26.2691V26.2771ZM234.842 26.362C234.842 25.4674 234.879 24.57 234.834 23.678C234.737 21.663 234.552 19.6613 233.715 17.7843C232.764 15.6551 231.126 14.5799 228.832 14.556C226.58 14.5321 224.942 15.5595 223.952 17.6144C223.428 18.7002 223.112 19.8471 222.962 21.0364C222.511 24.5674 222.511 28.1009 222.962 31.6319C223.122 32.8956 223.452 34.1194 224.041 35.2557C224.803 36.7212 225.925 37.7141 227.586 38.0247C230.489 38.5663 232.796 37.3026 233.873 34.5283C234.895 31.8973 234.844 29.123 234.844 26.3647L234.842 26.362ZM200.152 26.1151C196.747 26.0727 194.198 28.6611 194.137 32.2159C194.082 35.5743 196.51 38.0725 199.899 38.1388C203.473 38.2079 206.291 35.7017 206.312 32.4363C206.336 28.7248 203.837 26.1603 200.15 26.1151H200.152Z" fill="#F9F9F9"/>
<path d="M245.759 7.87115C246.367 7.48089 247.094 7.27647 247.871 7.32956C249.86 7.46231 251.211 9.09502 251.213 11.3755C251.213 12.8861 250.579 14.1206 249.594 14.8082L251.084 17.7471C253.349 16.5153 254.879 14.1233 254.874 11.3622C254.866 7.34284 251.648 4.10661 247.645 4.09599C245.901 4.09333 244.319 4.68801 243.078 5.69154C244.089 6.24374 244.998 6.97913 245.762 7.87115H245.759Z" fill="#8F00FF"/>
<path d="M240.389 11.4074C240.389 15.3631 243.616 18.6152 247.55 18.6338C248.833 18.6391 250.036 18.3179 251.082 17.7471L249.591 14.8082C248.877 15.3073 247.982 15.5223 247.01 15.3418C244.956 14.9622 243.781 13.0587 244.079 10.6003C244.224 9.4189 244.861 8.44193 245.757 7.87114C244.996 6.98177 244.084 6.24373 243.073 5.69153C241.427 7.02425 240.387 9.07378 240.387 11.4074H240.389Z" fill="#8F00FF"/>
</g>
<defs>
<clipPath id="clip0_1354_11908">
<rect width="119.302" height="45.3683" fill="white" transform="translate(140.016 3.56503)"/>
</clipPath>
</defs>
</svg>
