<svg width="32" height="31" viewBox="0 0 32 31" fill="none" xmlns="http://www.w3.org/2000/svg">
<rect x="0.5" width="31" height="31" rx="15.5" fill="black"/>
<path d="M16.0024 7.87558C18.4874 7.87558 18.7791 7.88666 19.7613 7.93097C20.6696 7.97158 21.1607 8.12297 21.4894 8.25221C21.9251 8.42206 22.2352 8.62145 22.5602 8.94639C22.8851 9.27132 23.0882 9.58148 23.2543 10.0172C23.3799 10.3458 23.535 10.8369 23.5756 11.7452C23.6199 12.7274 23.631 13.0191 23.631 15.5041C23.631 17.9891 23.6199 18.2808 23.5756 19.263C23.535 20.1714 23.3836 20.6625 23.2543 20.9911C23.0845 21.4268 22.8851 21.737 22.5602 22.0619C22.2352 22.3868 21.9251 22.5899 21.4894 22.7561C21.1607 22.8816 20.6696 23.0367 19.7613 23.0773C18.7791 23.1216 18.4874 23.1327 16.0024 23.1327C13.5174 23.1327 13.2257 23.1216 12.2435 23.0773C11.3352 23.0367 10.8441 22.8853 10.5155 22.7561C10.0797 22.5862 9.76958 22.3868 9.44465 22.0619C9.11971 21.737 8.91663 21.4268 8.75047 20.9911C8.62493 20.6625 8.46985 20.1714 8.42923 19.263C8.38492 18.2808 8.37384 17.9891 8.37384 15.5041C8.37384 13.0191 8.38492 12.7274 8.42923 11.7452C8.46985 10.8369 8.62124 10.3458 8.75047 10.0172C8.92032 9.58148 9.11971 9.27132 9.44465 8.94639C9.76958 8.62145 10.0797 8.41837 10.5155 8.25221C10.8441 8.12667 11.3352 7.97158 12.2435 7.93097C13.2257 7.88297 13.5211 7.87558 16.0024 7.87558ZM16.0024 6.19922C13.4768 6.19922 13.1592 6.2103 12.166 6.25461C11.1764 6.29891 10.5007 6.45769 9.9099 6.68662C9.29695 6.92293 8.78001 7.24418 8.26307 7.76112C7.74613 8.27806 7.42858 8.79869 7.18857 9.40794C6.95964 9.99873 6.80087 10.6744 6.75656 11.6677C6.71225 12.6573 6.70117 12.9748 6.70117 15.5004C6.70117 18.0261 6.71225 18.3436 6.75656 19.3369C6.80087 20.3265 6.95964 21.0022 7.18857 21.5967C7.42489 22.2096 7.74613 22.7265 8.26307 23.2435C8.78001 23.7604 9.30064 24.078 9.9099 24.318C10.5007 24.5469 11.1764 24.7057 12.1697 24.75C13.1629 24.7943 13.4768 24.8054 16.0061 24.8054C18.5354 24.8054 18.8493 24.7943 19.8425 24.75C20.8321 24.7057 21.5078 24.5469 22.1023 24.318C22.7153 24.0817 23.2322 23.7604 23.7491 23.2435C24.2661 22.7265 24.5836 22.2059 24.8236 21.5967C25.0526 21.0059 25.2113 20.3301 25.2556 19.3369C25.3 18.3436 25.311 18.0298 25.311 15.5004C25.311 12.9711 25.3 12.6573 25.2556 11.664C25.2113 10.6744 25.0526 9.99873 24.8236 9.40425C24.5873 8.7913 24.2661 8.27436 23.7491 7.75742C23.2322 7.24048 22.7116 6.92293 22.1023 6.68293C21.5115 6.454 20.8358 6.29522 19.8425 6.25091C18.8456 6.2103 18.528 6.19922 16.0024 6.19922Z" fill="white"/>
<path d="M16.0026 10.7266C13.3662 10.7266 11.2246 12.8645 11.2246 15.5046C11.2246 18.1447 13.3625 20.2826 16.0026 20.2826C18.6427 20.2826 20.7806 18.1447 20.7806 15.5046C20.7806 12.8645 18.6427 10.7266 16.0026 10.7266ZM16.0026 18.6025C14.2893 18.6025 12.901 17.2142 12.901 15.5009C12.901 13.7876 14.2893 12.3992 16.0026 12.3992C17.7159 12.3992 19.1043 13.7876 19.1043 15.5009C19.1043 17.2142 17.7159 18.6025 16.0026 18.6025Z" fill="white"/>
<path d="M20.9686 11.6502C21.5845 11.6502 22.0837 11.1509 22.0837 10.535C22.0837 9.91918 21.5845 9.41992 20.9686 9.41992C20.3528 9.41992 19.8535 9.91918 19.8535 10.535C19.8535 11.1509 20.3528 11.6502 20.9686 11.6502Z" fill="white"/>
</svg>
