<svg width="37" height="37" viewBox="0 0 37 37" fill="none" xmlns="http://www.w3.org/2000/svg">
<path fill-rule="evenodd" clip-rule="evenodd" d="M10.775 0.11C12.73 0.02 13.3533 0 18.3333 0C23.3133 0 23.9367 0.0216666 25.89 0.11C27.8433 0.198333 29.1767 0.51 30.3433 0.961667C31.565 1.42333 32.6733 2.145 33.59 3.07833C34.5233 3.99333 35.2433 5.1 35.7033 6.32333C36.1567 7.49 36.4667 8.82333 36.5567 10.7733C36.6467 12.7317 36.6667 13.355 36.6667 18.3333C36.6667 23.3117 36.645 23.9367 36.5567 25.8917C36.4683 27.8417 36.1567 29.175 35.7033 30.3417C35.2431 31.5651 34.522 32.6735 33.59 33.59C32.6733 34.5233 31.565 35.2433 30.3433 35.7033C29.1767 36.1567 27.8433 36.4667 25.8933 36.5567C23.9367 36.6467 23.3133 36.6667 18.3333 36.6667C13.3533 36.6667 12.73 36.645 10.775 36.5567C8.825 36.4683 7.49167 36.1567 6.325 35.7033C5.10161 35.2431 3.99314 34.522 3.07667 33.59C2.1443 32.6742 1.42257 31.5663 0.961667 30.3433C0.51 29.1767 0.2 27.8433 0.11 25.8933C0.02 23.935 0 23.3117 0 18.3333C0 13.355 0.0216666 12.73 0.11 10.7767C0.198333 8.82333 0.51 7.49 0.961667 6.32333C1.42306 5.10023 2.14536 3.99233 3.07833 3.07667C3.99367 2.1445 5.10098 1.42279 6.32333 0.961667C7.49 0.51 8.825 0.2 10.775 0.11ZM25.74 3.41C23.8067 3.32167 23.2267 3.30333 18.3317 3.30333C13.4367 3.30333 12.8567 3.32167 10.9233 3.41C9.135 3.49167 8.165 3.79 7.51833 4.04167C6.66333 4.375 6.05167 4.77 5.41 5.41167C4.80121 6.00299 4.33302 6.7235 4.04 7.52C3.78833 8.16667 3.49 9.13667 3.40833 10.925C3.32 12.8583 3.30167 13.4383 3.30167 18.3333C3.30167 23.2283 3.32 23.8083 3.40833 25.7417C3.49 27.53 3.78833 28.5 4.04 29.1467C4.33333 29.9417 4.80167 30.6633 5.41 31.255C6.00167 31.8633 6.72333 32.3317 7.51833 32.625C8.165 32.8767 9.135 33.175 10.9233 33.2567C12.8567 33.345 13.435 33.3633 18.3317 33.3633C23.2283 33.3633 23.8067 33.345 25.74 33.2567C27.5283 33.175 28.4983 32.8767 29.145 32.625C30 32.2917 30.6117 31.8967 31.2533 31.255C31.8617 30.6633 32.33 29.9417 32.6233 29.1467C32.875 28.5 33.1733 27.53 33.255 25.7417C33.3433 23.8083 33.3617 23.2283 33.3617 18.3333C33.3617 13.4383 33.3433 12.8583 33.255 10.925C33.1733 9.13667 32.875 8.16667 32.6233 7.52C32.29 6.665 31.895 6.05333 31.2533 5.41167C30.662 4.80288 29.9415 4.33469 29.145 4.04167C28.4983 3.79 27.5283 3.49167 25.74 3.41ZM15.99 23.985C17.2978 24.5294 18.754 24.6029 20.1099 24.1929C21.4658 23.7829 22.6373 22.9149 23.4244 21.7371C24.2114 20.5593 24.5651 19.1448 24.4251 17.7352C24.2851 16.3256 23.66 15.0083 22.6567 14.0083C22.0171 13.3691 21.2437 12.8797 20.3922 12.5752C19.5408 12.2708 18.6324 12.1589 17.7325 12.2477C16.8326 12.3365 15.9636 12.6236 15.188 13.0886C14.4124 13.5535 13.7496 14.1846 13.2472 14.9364C12.7448 15.6883 12.4153 16.5421 12.2825 17.4366C12.1497 18.3311 12.2169 19.2438 12.4792 20.1092C12.7415 20.9746 13.1925 21.771 13.7995 22.4412C14.4066 23.1114 15.1547 23.6386 15.99 23.985ZM11.67 11.67C12.545 10.795 13.5839 10.1008 14.7272 9.62727C15.8705 9.1537 17.0958 8.90996 18.3333 8.90996C19.5708 8.90996 20.7962 9.1537 21.9395 9.62727C23.0828 10.1008 24.1216 10.795 24.9967 11.67C25.8717 12.545 26.5658 13.5839 27.0394 14.7272C27.513 15.8705 27.7567 17.0958 27.7567 18.3333C27.7567 19.5708 27.513 20.7962 27.0394 21.9395C26.5658 23.0828 25.8717 24.1216 24.9967 24.9967C23.2294 26.7639 20.8326 27.7567 18.3333 27.7567C15.8341 27.7567 13.4372 26.7639 11.67 24.9967C9.90277 23.2294 8.90996 20.8326 8.90996 18.3333C8.90996 15.8341 9.90277 13.4372 11.67 11.67ZM29.8467 10.3133C30.0635 10.1088 30.2371 9.8628 30.3572 9.58996C30.4772 9.31711 30.5414 9.02295 30.5457 8.72488C30.55 8.42682 30.4945 8.13091 30.3825 7.85468C30.2704 7.57845 30.1041 7.32752 29.8933 7.11673C29.6825 6.90595 29.4315 6.7396 29.1553 6.62753C28.8791 6.51546 28.5832 6.45996 28.2851 6.46431C27.9871 6.46865 27.6929 6.53276 27.42 6.65283C27.1472 6.7729 26.9012 6.94649 26.6967 7.16333C26.2989 7.58505 26.0811 8.1452 26.0895 8.72488C26.098 9.30456 26.332 9.85813 26.7419 10.2681C27.1519 10.678 27.7054 10.912 28.2851 10.9205C28.8648 10.9289 29.425 10.7112 29.8467 10.3133Z" fill="black"/>
</svg>
