<svg width="40" height="40" viewBox="0 0 40 40" fill="none" xmlns="http://www.w3.org/2000/svg">
<path fill-rule="evenodd" clip-rule="evenodd" d="M1.66797 4.72999C1.66885 3.91782 1.99188 3.13916 2.56617 2.56486C3.14047 1.99057 3.91913 1.66754 4.7313 1.66666H35.268C35.6706 1.666 36.0694 1.74477 36.4415 1.89844C36.8137 2.05211 37.1519 2.27768 37.4367 2.56222C37.7216 2.84677 37.9475 3.1847 38.1016 3.55668C38.2557 3.92865 38.3349 4.32737 38.3346 4.72999V35.2667C38.3346 36.0797 38.0118 36.8595 37.437 37.4345C36.8623 38.0096 36.0827 38.3329 35.2696 38.3333H4.7313C3.91884 38.3324 3.13993 38.0092 2.56558 37.4345C1.99124 36.8599 1.66841 36.0808 1.66797 35.2683V4.72999ZM16.1813 15.6467H21.1463V18.14C21.863 16.7067 23.6963 15.4167 26.4513 15.4167C31.733 15.4167 32.9846 18.2717 32.9846 23.51V33.2133H27.6396V24.7033C27.6396 21.72 26.923 20.0367 25.103 20.0367C22.578 20.0367 21.528 21.8517 21.528 24.7033V33.2133H16.1813V15.6467ZM7.01464 32.985H12.3613V15.4167H7.01464V32.985ZM13.1263 9.68666C13.1364 10.1444 13.0549 10.5996 12.8867 11.0255C12.7185 11.4514 12.4669 11.8394 12.1467 12.1667C11.8265 12.494 11.4441 12.7541 11.0221 12.9317C10.6 13.1092 10.1467 13.2007 9.6888 13.2007C9.2309 13.2007 8.77762 13.1092 8.35554 12.9317C7.93347 12.7541 7.55112 12.494 7.23092 12.1667C6.91072 11.8394 6.65912 11.4514 6.4909 11.0255C6.32268 10.5996 6.24122 10.1444 6.2513 9.68666C6.27109 8.78808 6.64194 7.93298 7.28444 7.30447C7.92695 6.67596 8.79001 6.32402 9.6888 6.32402C10.5876 6.32402 11.4507 6.67596 12.0932 7.30447C12.7357 7.93298 13.1065 8.78808 13.1263 9.68666Z" fill="black"/>
</svg>
