<svg width="32" height="31" viewBox="0 0 32 31" fill="none" xmlns="http://www.w3.org/2000/svg">
<rect x="0.5" width="31" height="31" rx="15.5" fill="black"/>
<path d="M23.266 6.97461H8.73323C8.39942 6.97461 8.07929 7.10721 7.84325 7.34325C7.60721 7.57929 7.47461 7.89942 7.47461 8.23323V22.766C7.47461 23.0998 7.60721 23.4199 7.84325 23.656C8.07929 23.892 8.39942 24.0246 8.73323 24.0246H23.266C23.5998 24.0246 23.9199 23.892 24.156 23.656C24.392 23.4199 24.5246 23.0998 24.5246 22.766V8.23323C24.5246 7.89942 24.392 7.57929 24.156 7.34325C23.9199 7.10721 23.5998 6.97461 23.266 6.97461ZM12.5565 21.4991H9.99304V13.3565H12.5565V21.4991ZM11.273 12.2281C10.9822 12.2265 10.6984 12.1388 10.4575 11.976C10.2165 11.8132 10.0292 11.5827 9.91907 11.3136C9.80898 11.0445 9.78108 10.7488 9.8389 10.4638C9.89671 10.1788 10.0377 9.91735 10.2439 9.7124C10.4502 9.50745 10.7126 9.36819 10.9979 9.31221C11.2832 9.25622 11.5788 9.28602 11.8472 9.39783C12.1156 9.50964 12.3449 9.69847 12.5061 9.94047C12.6673 10.1825 12.7532 10.4668 12.753 10.7576C12.7557 10.9523 12.7193 11.1455 12.6457 11.3258C12.5722 11.5061 12.4631 11.6697 12.325 11.8069C12.1869 11.9441 12.0226 12.0522 11.8418 12.1245C11.6611 12.1969 11.4676 12.2321 11.273 12.2281ZM22.005 21.5062H19.4428V17.0578C19.4428 15.7459 18.8851 15.341 18.1652 15.341C17.4051 15.341 16.6591 15.914 16.6591 17.0909V21.5062H14.0957V13.3624H16.5608V14.4908H16.594C16.8415 13.99 17.7082 13.1339 19.0307 13.1339C20.461 13.1339 22.0062 13.9829 22.0062 16.4693L22.005 21.5062Z" fill="white"/>
</svg>
