<svg width="26" height="24" viewBox="0 0 26 24" fill="none" xmlns="http://www.w3.org/2000/svg">
<path d="M25.6538 20.0368L15.2112 1.32109C14.7497 0.493947 13.9231 0 13 0C12.0768 0 11.2502 0.493837 10.7887 1.32109L0.346206 20.0368C-0.115402 20.864 -0.115402 21.8517 0.346206 22.6789C0.807815 23.5062 1.63433 24 2.55745 24H23.4428C24.3658 24 25.1924 23.5062 25.6539 22.679C26.1154 21.8518 26.1153 20.8641 25.6538 20.0368ZM13.0001 20.9552C12.0836 20.9552 11.338 20.1837 11.338 19.2354C11.338 18.2872 12.0836 17.5157 13.0001 17.5157C13.9165 17.5157 14.6621 18.2872 14.6621 19.2354C14.662 20.1838 13.9164 20.9552 13.0001 20.9552ZM14.6733 13.6038C14.6733 14.5585 13.9226 15.3352 13.0001 15.3352C12.0775 15.3352 11.3268 14.5585 11.3268 13.6038V5.65748C11.3268 5.20454 11.6817 4.83733 12.1194 4.83733H13.8808C14.3186 4.83733 14.6734 5.20454 14.6734 5.65748V13.6038H14.6733Z" fill="#A70000"/>
</svg>
