<svg width="55" height="55" viewBox="0 0 55 55" fill="none" xmlns="http://www.w3.org/2000/svg">
<path fill-rule="evenodd" clip-rule="evenodd" d="M11.459 13.7501C10.8512 13.7501 10.2683 13.9915 9.83853 14.4213C9.40876 14.8511 9.16732 15.434 9.16732 16.0417V38.9584C9.16732 39.5662 9.40876 40.1491 9.83853 40.5789C10.2683 41.0086 10.8512 41.2501 11.459 41.2501H27.8902C28.3637 39.9082 29.2417 38.7463 30.4033 37.9244C31.5648 37.1025 32.9527 36.6611 34.3756 36.6611C35.7986 36.6611 37.1865 37.1025 38.348 37.9244C39.5096 38.7463 40.3876 39.9082 40.8611 41.2501H43.5423C44.1501 41.2501 44.733 41.0086 45.1628 40.5789C45.5925 40.1491 45.834 39.5662 45.834 38.9584V16.0417C45.834 15.434 45.5925 14.8511 45.1628 14.4213C44.733 13.9915 44.1501 13.7501 43.5423 13.7501H40.8611C40.3876 15.0919 39.5096 16.2539 38.348 17.0758C37.1865 17.8977 35.7986 18.339 34.3756 18.339C32.9527 18.339 31.5648 17.8977 30.4033 17.0758C29.2417 16.2539 28.3637 15.0919 27.8902 13.7501H11.459ZM4.58398 16.0417C4.58398 14.2184 5.30831 12.4697 6.59763 11.1804C7.88694 9.89108 9.63562 9.16675 11.459 9.16675H29.7923C30.4001 9.16675 30.983 9.40819 31.4128 9.83796C31.8425 10.2677 32.084 10.8506 32.084 11.4584C32.084 12.0662 32.3254 12.6491 32.7552 13.0789C33.185 13.5086 33.7679 13.7501 34.3756 13.7501C34.9834 13.7501 35.5663 13.5086 35.9961 13.0789C36.4259 12.6491 36.6673 12.0662 36.6673 11.4584C36.6673 10.8506 36.9087 10.2677 37.3385 9.83796C37.7683 9.40819 38.3512 9.16675 38.959 9.16675H43.5423C45.3657 9.16675 47.1144 9.89108 48.4037 11.1804C49.693 12.4697 50.4173 14.2184 50.4173 16.0417V38.9584C50.4173 40.7818 49.693 42.5305 48.4037 43.8198C47.1144 45.1091 45.3657 45.8334 43.5423 45.8334H38.959C38.3512 45.8334 37.7683 45.592 37.3385 45.1622C36.9087 44.7324 36.6673 44.1495 36.6673 43.5417C36.6673 42.934 36.4259 42.3511 35.9961 41.9213C35.5663 41.4915 34.9834 41.2501 34.3756 41.2501C33.7679 41.2501 33.185 41.4915 32.7552 41.9213C32.3254 42.3511 32.084 42.934 32.084 43.5417C32.084 44.1495 31.8425 44.7324 31.4128 45.1622C30.983 45.592 30.4001 45.8334 29.7923 45.8334H11.459C9.63562 45.8334 7.88694 45.1091 6.59763 43.8198C5.30831 42.5305 4.58398 40.7818 4.58398 38.9584V16.0417ZM34.3756 20.6251C34.9834 20.6251 35.5663 20.8665 35.9961 21.2963C36.4259 21.7261 36.6673 22.309 36.6673 22.9167V24.0626C36.6673 24.6704 36.4259 25.2533 35.9961 25.683C35.5663 26.1128 34.9834 26.3542 34.3756 26.3542C33.7679 26.3542 33.185 26.1128 32.7552 25.683C32.3254 25.2533 32.084 24.6704 32.084 24.0626V22.9167C32.084 22.309 32.3254 21.7261 32.7552 21.2963C33.185 20.8665 33.7679 20.6251 34.3756 20.6251ZM36.6673 30.9376C36.6673 30.3298 36.4259 29.7469 35.9961 29.3171C35.5663 28.8874 34.9834 28.6459 34.3756 28.6459C33.7679 28.6459 33.185 28.8874 32.7552 29.3171C32.3254 29.7469 32.084 30.3298 32.084 30.9376V32.0834C32.084 32.6912 32.3254 33.2741 32.7552 33.7039C33.185 34.1336 33.7679 34.3751 34.3756 34.3751C34.9834 34.3751 35.5663 34.1336 35.9961 33.7039C36.4259 33.2741 36.6673 32.6912 36.6673 32.0834V30.9376Z" fill="black"/>
</svg>
