<svg width="342" height="528" viewBox="0 0 342 528" fill="none" xmlns="http://www.w3.org/2000/svg">
<path d="M20.1377 527.8H322.005C332.94 527.8 341.8 518.935 341.8 508V107.579C341.778 106.458 341.411 104.75 340.657 102.789C339.855 100.702 338.62 98.3454 336.919 96.1318C333.518 91.7057 328.265 87.8623 320.881 87.8623L320.868 87.4629C323.893 87.267 329.134 85.9536 333.614 82.6523C338.086 79.3573 341.8 74.0823 341.8 65.9404V23.5C341.8 9.16994 332.422 0.200195 320.881 0.200195H23.1191C11.5782 0.200195 2.2002 9.16994 2.2002 23.5V65.4414C2.2002 71.2654 5.39808 76.4835 9.63281 80.3975C13.8686 84.3123 19.1119 86.8951 23.1465 87.4648L23.1191 87.8623C16.1902 87.8623 11.0046 91.183 7.52539 95.3428C4.14986 99.3787 2.39397 104.189 2.21289 107.49L2.2002 107.805V221.74C2.2002 233.861 0.78846 441.727 0.336914 507.925C0.262006 518.912 9.14866 527.8 20.1377 527.8Z" fill="white" stroke="#8F00FF" stroke-width="0.4"/>
<line x1="17" y1="87.7" x2="322" y2="87.7" stroke="#8F00FF" stroke-width="0.6" stroke-dasharray="10 10"/>
</svg>
