<svg width="29" height="31" viewBox="0 0 29 31" fill="none" xmlns="http://www.w3.org/2000/svg">
<rect x="0.5" width="28" height="31" rx="14" fill="black"/>
<path fill-rule="evenodd" clip-rule="evenodd" d="M6.83719 15.3355C10.9185 13.3668 13.64 12.0689 15.0017 11.4419C18.8896 9.65147 19.6975 9.34046 20.2241 9.33019C20.3399 9.32793 20.5988 9.35971 20.7666 9.5104C20.9082 9.63764 20.9472 9.80952 20.9658 9.93015C20.9845 10.0508 21.0077 10.3256 20.9892 10.5403C20.7786 12.9913 19.8669 18.939 19.4031 21.684C19.2069 22.8456 18.8204 23.235 18.4463 23.2731C17.6333 23.356 17.016 22.6783 16.2285 22.1068C14.9964 21.2126 14.3002 20.6559 13.1042 19.7833C11.722 18.7748 12.618 18.2205 13.4057 17.3147C13.6119 17.0776 17.194 13.4703 17.2634 13.1431C17.272 13.1022 17.2801 12.9496 17.1982 12.869C17.1164 12.7885 16.9955 12.816 16.9083 12.8379C16.7848 12.869 14.8163 14.3095 11.0031 17.1593C10.4443 17.5841 9.93825 17.791 9.48482 17.7802C8.98494 17.7682 8.02339 17.4673 7.30857 17.21C6.43182 16.8945 5.735 16.7277 5.79568 16.1918C5.82728 15.9127 6.17445 15.6272 6.83719 15.3355Z" fill="white"/>
</svg>
