<svg width="27" height="26" viewBox="0 0 27 26" fill="none" xmlns="http://www.w3.org/2000/svg">
<g filter="url(#filter0_b_1102_10889)">
<rect y="2.93555" width="24.8158" height="23" rx="7" fill="white"/>
<rect x="0.5" y="3.43555" width="23.8158" height="22" rx="6.5" stroke="#8F00FF"/>
</g>
<path d="M18.6562 13.75C18.7806 13.75 18.8998 13.7006 18.9877 13.6127C19.0756 13.5248 19.125 13.4056 19.125 13.2812V10.9375C19.125 10.6889 19.0262 10.4504 18.8504 10.2746C18.6746 10.0988 18.4361 10 18.1875 10H6.9375C6.68886 10 6.4504 10.0988 6.27459 10.2746C6.09877 10.4504 6 10.6889 6 10.9375V13.2812C6 13.4056 6.04939 13.5248 6.13729 13.6127C6.2252 13.7006 6.34443 13.75 6.46875 13.75C6.71739 13.75 6.95585 13.8488 7.13166 14.0246C7.30748 14.2004 7.40625 14.4389 7.40625 14.6875C7.40625 14.9361 7.30748 15.1746 7.13166 15.3504C6.95585 15.5262 6.71739 15.625 6.46875 15.625C6.34443 15.625 6.2252 15.6744 6.13729 15.7623C6.04939 15.8502 6 15.9694 6 16.0938V18.4375C6 18.6861 6.09877 18.9246 6.27459 19.1004C6.4504 19.2762 6.68886 19.375 6.9375 19.375H18.1875C18.4361 19.375 18.6746 19.2762 18.8504 19.1004C19.0262 18.9246 19.125 18.6861 19.125 18.4375V16.0938C19.125 15.9694 19.0756 15.8502 18.9877 15.7623C18.8998 15.6744 18.7806 15.625 18.6562 15.625C18.4076 15.625 18.1692 15.5262 17.9933 15.3504C17.8175 15.1746 17.7188 14.9361 17.7188 14.6875C17.7188 14.4389 17.8175 14.2004 17.9933 14.0246C18.1692 13.8488 18.4076 13.75 18.6562 13.75ZM18.1875 16.5016V18.4375H14.9062V17.0312H13.9688V18.4375H6.9375V16.5016C7.33875 16.3967 7.69391 16.1617 7.94739 15.8335C8.20087 15.5053 8.33837 15.1022 8.33837 14.6875C8.33837 14.2728 8.20087 13.8697 7.94739 13.5415C7.69391 13.2133 7.33875 12.9783 6.9375 12.8734V10.9375H13.9688V12.3438H14.9062V10.9375H18.1875V12.8734C17.7863 12.9783 17.4311 13.2133 17.1776 13.5415C16.9241 13.8697 16.7866 14.2728 16.7866 14.6875C16.7866 15.1022 16.9241 15.5053 17.1776 15.8335C17.4311 16.1617 17.7863 16.3967 18.1875 16.5016Z" fill="black"/>
<path d="M13.9062 14.0938H14.8438V16.9062H13.9062V14.0938Z" fill="black"/>
<defs>
<filter id="filter0_b_1102_10889" x="-4" y="-1.06445" width="32.8157" height="31" filterUnits="userSpaceOnUse" color-interpolation-filters="sRGB">
<feFlood flood-opacity="0" result="BackgroundImageFix"/>
<feGaussianBlur in="BackgroundImageFix" stdDeviation="2"/>
<feComposite in2="SourceAlpha" operator="in" result="effect1_backgroundBlur_1102_10889"/>
<feBlend mode="normal" in="SourceGraphic" in2="effect1_backgroundBlur_1102_10889" result="shape"/>
</filter>
</defs>
</svg>
